<svg width="23" height="23" viewBox="0 0 23 23" fill="none" xmlns="http://www.w3.org/2000/svg">
<g clip-path="url(#clip0_752_960)">
<path d="M12.7709 2.52498C14.725 2.80387 16.4751 3.71541 17.8078 5.0481C19.1723 6.4126 20.0969 8.21696 20.3496 10.2291H23.0019V12.7709H20.3084C20.0052 14.667 19.1068 16.3647 17.8078 17.6618C16.477 18.9926 14.725 19.906 12.7709 20.1849V23H10.2291V20.1849C8.27498 19.906 6.5249 18.9945 5.19409 17.6618C3.8951 16.3628 2.99666 14.667 2.69344 12.7709H0V10.2291H2.65039C2.90308 8.21696 3.82772 6.4126 5.19222 5.0481C6.52303 3.71729 8.27311 2.80387 10.2272 2.52498V0H12.769V2.52498H12.7709ZM11.5 6.62785C14.1111 6.62785 16.2262 8.74479 16.2262 11.354C16.2262 13.9651 14.1092 16.0802 11.5 16.0802C8.88892 16.0802 6.77384 13.9632 6.77384 11.354C6.77384 8.74479 8.88892 6.62785 11.5 6.62785ZM16.6585 6.19735C15.3389 4.87777 13.514 4.05981 11.5 4.05981C9.486 4.05981 7.66105 4.8759 6.34147 6.19735C5.02189 7.51693 4.20394 9.34188 4.20394 11.3559C4.20394 13.3699 5.02002 15.1948 6.34147 16.5144C7.66105 17.834 9.486 18.6519 11.5 18.6519C13.514 18.6519 15.3389 17.8359 16.6585 16.5144C17.9781 15.1948 18.7961 13.3699 18.7961 11.3559C18.7942 9.34001 17.9781 7.51693 16.6585 6.19735Z" fill="white"/>
</g>
<defs>
<clipPath id="clip0_752_960">
<rect width="23" height="23" fill="white"/>
</clipPath>
</defs>
</svg>
