<svg width="31" height="32" viewBox="0 0 31 32" fill="none" xmlns="http://www.w3.org/2000/svg">
<path d="M25.8199 11.8074C24.2305 7.44226 20.1159 4.32279 15.2745 4.32279C10.4539 4.32279 6.3498 7.41403 4.7499 11.7509C4.66642 11.6557 4.57947 11.5639 4.48557 11.4827C5.39334 6.19659 9.87655 2.17728 15.2814 2.17728C20.662 2.17728 25.1313 6.15777 26.0704 11.4051C25.973 11.5322 25.8895 11.6662 25.8199 11.8074ZM28.0668 10.3782C28.0459 10.3782 28.0285 10.3818 28.0076 10.3818C26.6547 4.43571 21.4793 0 15.278 0C8.90617 0 3.61258 4.68273 2.44047 10.8758C1.27532 11.0946 0.42668 12.1285 0.433636 13.3318V18.2545C0.433636 19.6343 1.52574 20.7529 2.87175 20.7529C3.62997 20.7529 4.30123 20.3895 4.74642 19.8319C5.82462 22.7149 8.00188 25.044 10.7913 26.279C10.8261 26.2085 10.8678 26.1414 10.913 26.0779C10.9582 26.0214 11.0069 25.972 11.0486 25.972C11.0904 25.972 11.1321 25.9862 11.1669 26.0109C10.5235 25.5239 8.2036 23.0325 7.69928 19.5496C7.48017 18.0181 8.61053 16.5113 9.92872 16.2643C12.0434 15.8655 14.1476 15.4103 16.2622 15.0186C17.6083 14.7716 18.5265 14.02 19.0864 12.7743C19.2186 12.4814 19.4099 11.8921 19.4968 11.0452C19.5177 10.9181 19.6255 10.8229 19.7542 10.8229C19.8377 10.8229 19.9142 10.8652 19.9629 10.9323L20.022 10.897C20.8568 12.125 22.5088 14.8457 22.7453 17.7111C23.0166 20.9894 22.8671 23.2337 20.3942 25.5309L20.3837 25.5415C20.349 25.5803 20.3281 25.6297 20.3281 25.6827C20.3281 25.7497 20.3629 25.8132 20.4185 25.8485C20.4394 25.8556 20.4603 25.8697 20.4811 25.8768C20.4985 25.8803 20.5124 25.8838 20.5298 25.8873C20.5472 25.8873 20.5611 25.8838 20.575 25.8768C20.6098 25.8591 20.6446 25.8379 20.6794 25.8168C23.2044 24.4017 25.1035 22.0621 25.9834 19.2744C26.3508 19.8236 26.9148 20.2059 27.5555 20.3401C26.5121 25.171 22.2619 28.1987 16.9996 28.6539C16.6657 27.8282 15.8727 27.2918 14.9962 27.2953C13.8067 27.2953 12.8398 28.2516 12.8398 29.4303C12.8398 30.6089 13.8067 31.5652 14.9962 31.5652C15.9214 31.5687 16.7457 30.9688 17.0379 30.0796C23.1279 29.5785 28.0111 25.905 29.0302 20.1989C29.9588 19.8107 30.564 18.8932 30.564 17.8734V12.9013C30.571 11.5074 29.451 10.3782 28.0668 10.3782Z" fill="black"/>
</svg>
