<svg width="31" height="30" viewBox="0 0 31 30" fill="none" xmlns="http://www.w3.org/2000/svg">
<path d="M15.5083 7.75244C11.3817 7.75244 8.05313 11.0818 8.05313 15.2093C8.05313 19.3369 11.3817 22.6662 15.5083 22.6662C19.635 22.6662 22.9635 19.3369 22.9635 15.2093C22.9635 11.0818 19.635 7.75244 15.5083 7.75244ZM15.5083 20.0573C12.8416 20.0573 10.6615 17.8831 10.6615 15.2093C10.6615 12.5355 12.8351 10.3614 15.5083 10.3614C18.1816 10.3614 20.3552 12.5355 20.3552 15.2093C20.3552 17.8831 18.1751 20.0573 15.5083 20.0573ZM25.0074 7.44742C25.0074 8.41441 24.2288 9.18671 23.2685 9.18671C22.3017 9.18671 21.5296 8.40792 21.5296 7.44742C21.5296 6.48692 22.3082 5.70813 23.2685 5.70813C24.2288 5.70813 25.0074 6.48692 25.0074 7.44742ZM29.9451 9.21267C29.8348 6.8828 29.3027 4.81902 27.5963 3.11867C25.8963 1.41832 23.833 0.886148 21.5036 0.76933C19.1029 0.633042 11.9073 0.633042 9.50654 0.76933C7.18368 0.879658 5.12035 1.41183 3.4139 3.11218C1.70744 4.81253 1.18188 6.87631 1.06508 9.20617C0.928826 11.6074 0.928826 18.8047 1.06508 21.206C1.17539 23.5358 1.70744 25.5996 3.4139 27.3C5.12035 29.0003 7.17719 29.5325 9.50654 29.6493C11.9073 29.7856 19.1029 29.7856 21.5036 29.6493C23.833 29.539 25.8963 29.0068 27.5963 27.3C29.2963 25.5996 29.8283 23.5358 29.9451 21.206C30.0814 18.8047 30.0814 11.6139 29.9451 9.21267ZM26.8436 23.7824C26.3375 25.0545 25.3578 26.0344 24.0796 26.5471C22.1655 27.3065 17.6236 27.1312 15.5083 27.1312C13.3931 27.1312 8.84472 27.3 6.93712 26.5471C5.66538 26.0409 4.68563 25.061 4.17304 23.7824C3.4139 21.8679 3.58908 17.325 3.58908 15.2093C3.58908 13.0936 3.42038 8.54421 4.17304 6.63618C4.67914 5.36417 5.65889 4.38419 6.93712 3.87149C8.8512 3.11218 13.3931 3.2874 15.5083 3.2874C17.6236 3.2874 22.172 3.11867 24.0796 3.87149C25.3513 4.3777 26.331 5.35768 26.8436 6.63618C27.6028 8.5507 27.4276 13.0936 27.4276 15.2093C27.4276 17.325 27.6028 21.8744 26.8436 23.7824Z" fill="black"/>
</svg>
