<svg width="14" height="23" viewBox="0 0 14 23" fill="none" xmlns="http://www.w3.org/2000/svg">
<path d="M0.00192916 22.749L0.574889 4.88134C0.569102 4.86636 0.563314 4.8495 0.561385 4.83264C0.553668 4.78394 0.561385 4.73524 0.580677 4.69403L0.679064 1.60339C0.679064 1.59964 0.679064 1.59402 0.679064 1.59028C0.679064 1.58091 0.679064 1.57154 0.680993 1.56218L0.723434 0.23414C0.727293 0.103021 0.837255 0 0.970367 0H13.07C13.207 0 13.317 0.108641 13.317 0.239759L13.3556 1.52472C13.3594 1.54345 13.3613 1.56218 13.3613 1.58091C13.3613 1.5959 13.3594 1.60901 13.3575 1.62212L13.9999 22.6816C14.0038 22.8146 13.8957 22.9251 13.7607 22.9269H13.753H9.34098C9.2098 22.9269 9.10177 22.8277 9.09405 22.7003L7.01635 7.79029L4.86727 22.7921C4.8499 22.912 4.7438 23 4.62226 23H0.246932C0.109962 23 0 22.8914 0 22.7602C0 22.7677 0 22.7584 0.00192916 22.749ZM7.75136 1.83565V5.08926C7.75136 5.21101 7.69927 5.32152 7.61825 5.40207C7.53529 5.48261 7.42147 5.53131 7.29608 5.53131H6.7289C6.60737 5.53131 6.49548 5.48261 6.41638 5.40581C6.41059 5.4002 6.4048 5.3927 6.39902 5.38708C6.32957 5.31216 6.28713 5.21101 6.28713 5.10237V1.83565H4.27116C4.0956 2.80406 3.70398 3.51584 3.1426 4.0272C2.59279 4.53107 1.88479 4.83451 1.0649 4.99186L0.501581 22.5355H4.40813L6.7752 6.00709C6.79064 5.90219 6.87552 5.81603 6.98741 5.80292C7.12245 5.78606 7.24785 5.87784 7.26521 6.00896L9.55705 22.4624H13.5002L12.9678 4.99935C12.1325 4.84388 11.4148 4.53856 10.8573 4.02907C10.2978 3.51771 9.90623 2.80406 9.72874 1.83753H7.75136V1.83565ZM7.25556 1.83565H6.78099V5.04805H7.25556V1.83565ZM10.2323 1.83565C10.3962 2.65233 10.728 3.24986 11.1968 3.6788C11.6579 4.10025 12.2559 4.36249 12.9543 4.50672L12.8713 1.83565H10.2323ZM1.08033 4.49923C1.76325 4.35312 2.34971 4.09276 2.80307 3.6788C3.26992 3.25173 3.60367 2.65233 3.76765 1.83565H1.16714L1.08033 4.49923Z" fill="black"/>
</svg>
