<svg width="26" height="34" viewBox="0 0 26 34" fill="none" xmlns="http://www.w3.org/2000/svg">
<path d="M13.8944 0.742676C7.1519 0.742676 0.488281 5.25608 0.488281 12.5607C0.488281 17.206 3.09064 19.8454 4.66783 19.8454C5.31842 19.8454 5.693 18.0242 5.693 17.5096C5.693 16.8959 4.13553 15.5894 4.13553 13.0358C4.13553 7.73053 8.15735 3.96936 13.3621 3.96936C17.8373 3.96936 21.1494 6.52299 21.1494 11.2146C21.1494 14.7184 19.7497 21.2905 15.2153 21.2905C13.5789 21.2905 12.1792 20.1028 12.1792 18.4004C12.1792 15.9061 13.9141 13.491 13.9141 10.9176C13.9141 6.54939 7.74334 7.34121 7.74334 12.62C7.74334 13.7286 7.88135 14.9559 8.37422 15.9655C7.46734 19.885 5.61414 25.7247 5.61414 29.763C5.61414 31.0102 5.79157 32.2375 5.90986 33.4846C6.1333 33.7354 6.02158 33.709 6.3633 33.5836C9.6754 29.0306 9.55711 28.1398 11.0554 22.1813C11.8637 23.7254 13.9535 24.5568 15.6096 24.5568C22.5886 24.5568 25.7233 17.7273 25.7233 11.5709C25.7233 5.01853 20.0848 0.742676 13.8944 0.742676Z" fill="black"/>
</svg>
