<svg width="25" height="26" viewBox="0 0 25 26" fill="none" xmlns="http://www.w3.org/2000/svg">
<path d="M24.6572 21.6157L19.7891 16.7476C19.5693 16.5278 19.2715 16.4058 18.959 16.4058H18.1631C19.5107 14.6821 20.3115 12.5142 20.3115 10.1558C20.3115 4.54541 15.7656 -0.000488281 10.1553 -0.000488281C4.54492 -0.000488281 -0.000976562 4.54541 -0.000976562 10.1558C-0.000976562 15.7661 4.54492 20.312 10.1553 20.312C12.5137 20.312 14.6816 19.5112 16.4053 18.1636V18.9595C16.4053 19.272 16.5273 19.5698 16.7471 19.7896L21.6152 24.6577C22.0742 25.1167 22.8164 25.1167 23.2705 24.6577L24.6523 23.2759C25.1113 22.8169 25.1113 22.0747 24.6572 21.6157ZM10.1553 16.4058C6.70313 16.4058 3.90527 13.6128 3.90527 10.1558C3.90527 6.70361 6.69824 3.90576 10.1553 3.90576C13.6074 3.90576 16.4053 6.69873 16.4053 10.1558C16.4053 13.6079 13.6123 16.4058 10.1553 16.4058Z" fill="#7A7A7A"/>
</svg>
