<svg width="18" height="20" viewBox="0 0 18 20" fill="none" xmlns="http://www.w3.org/2000/svg">
<g clip-path="url(#clip0_754_915)">
<path d="M14.616 3.54492H16.8456C17.1522 3.54492 17.4462 3.66496 17.663 3.87862C17.8799 4.09229 18.0017 4.38208 18.0017 4.68425V18.8639C18.0017 19.1661 17.8799 19.4559 17.663 19.6696C17.4462 19.8832 17.1522 20.0033 16.8456 20.0033H1.15607C0.849461 20.0033 0.55541 19.8832 0.338605 19.6696C0.1218 19.4559 0 19.1661 0 18.8639L0 4.68099C0 4.37882 0.1218 4.08903 0.338605 3.87537C0.55541 3.6617 0.849461 3.54167 1.15607 3.54167H3.34269H3.38894C3.38894 2.77018 3.38893 1.94336 3.39719 1.09049C3.39719 0.385742 3.79851 0.00976562 4.49876 0.00976562L13.8117 0C14.3485 0 14.6061 0.651042 14.6061 1.09701C14.621 1.09701 14.6061 3.31055 14.616 3.53841V3.54492Z" fill="black"/>
<path d="M13.9456 1.46484L9.47656 6.07422L13.503 7.88249C13.7226 7.98665 13.9472 7.68555 13.9472 7.44466V1.46484H13.9456Z" fill="#FFFFFE"/>
<path d="M8.26443 6.07552L4.05469 1.47266V7.44434C4.05469 7.74544 4.35527 7.74544 4.7153 7.62012C5.7442 7.26042 7.7475 6.31803 8.26773 6.07552H8.26443Z" fill="#FFFFFE"/>
<path d="M8.5655 19.2682V6.80892L4.25997 8.4642C3.86691 8.61556 3.5366 8.48698 3.48541 7.46159C3.44742 6.69987 3.41109 5.58496 3.39457 4.27149C3.37644 4.27311 3.3582 4.27311 3.34007 4.27149H1.1551C1.10054 4.27127 1.04648 4.28175 0.996067 4.30233C0.945657 4.3229 0.899905 4.35316 0.861478 4.39133C0.823051 4.4295 0.792716 4.47483 0.772241 4.52467C0.751765 4.57452 0.74156 4.62788 0.742217 4.68164V18.8646C0.742434 18.9178 0.753285 18.9705 0.774152 19.0196C0.795018 19.0686 0.825491 19.1132 0.863831 19.1507C0.902171 19.1882 0.947626 19.2178 0.997602 19.238C1.04758 19.2582 1.1011 19.2684 1.1551 19.2682H8.5655Z" fill="#FFFFFE"/>
<path d="M9.41406 6.88965V19.2676H16.8459C16.9544 19.2671 17.0584 19.2245 17.1351 19.1489C17.2118 19.0733 17.2551 18.9709 17.2555 18.8639V4.68099C17.2551 4.57407 17.2118 4.47165 17.1351 4.39604C17.0584 4.32044 16.9544 4.27777 16.8459 4.27734H14.6197C14.6197 5.90495 14.59 7.27539 14.4066 7.96875C14.1639 8.88997 13.3662 8.54492 12.732 8.27962L9.41406 6.88965Z" fill="#FFFFFE"/>
<path d="M4.25781 0.728516L8.87383 5.75944L13.7392 0.728516H4.25781Z" fill="white"/>
</g>
<defs>
<clipPath id="clip0_754_915">
<rect width="18" height="20" fill="white"/>
</clipPath>
</defs>
</svg>
