<svg width="25" height="16" viewBox="0 0 25 16" fill="none" xmlns="http://www.w3.org/2000/svg">
<path fill-rule="evenodd" clip-rule="evenodd" d="M19.2098 3.77926L15.5518 3.75908V1.31759C15.5518 0.954399 15.4032 0.625504 15.1611 0.387409C14.9211 0.147296 14.5894 0 14.2232 0H4.08325C3.71704 0 3.38542 0.147296 3.14535 0.387409C2.90527 0.625504 2.75472 0.954399 2.75472 1.31759C2.75472 1.51533 2.91545 1.67474 3.11483 1.67474C3.31421 1.67474 3.47494 1.51533 3.47494 1.31759C3.47494 1.15214 3.54411 1.00081 3.65397 0.891848C3.76383 0.782889 3.91642 0.714286 4.08325 0.714286H14.2232C14.3901 0.714286 14.5426 0.782889 14.6525 0.891848C14.7624 1.00081 14.8315 1.15214 14.8315 1.31759V12.498H12.8011C12.6017 12.498 12.441 12.6574 12.441 12.8551C12.441 13.0529 12.6017 13.2123 12.8011 13.2123H15.1917C15.391 13.2123 15.5518 13.0529 15.5518 12.8551V12.4496H17.7246C17.8894 8.73285 23.2707 8.22034 23.818 12.4496H25L24.6358 8.57143L20.756 7.09847L19.2098 3.77926ZM0.539144 7.57466C0.240072 7.57466 0 7.41324 0 7.2155C0 7.01776 0.242106 6.85634 0.539144 6.85634H5.39958C5.69865 6.85634 5.93872 7.01776 5.93872 7.2155C5.93872 7.41324 5.69662 7.57466 5.39958 7.57466H0.539144ZM1.65202 5.64165C1.42822 5.64165 1.24715 5.48224 1.24715 5.2845C1.24715 5.08676 1.42822 4.92736 1.65202 4.92736H5.40161C5.62541 4.92736 5.80648 5.08676 5.80648 5.2845C5.80648 5.48224 5.62541 5.64165 5.40161 5.64165H1.65202ZM2.16675 3.70864C1.94295 3.70864 1.76188 3.54923 1.76188 3.35149C1.76188 3.15375 1.94295 2.99435 2.16675 2.99435H5.39958C5.62337 2.99435 5.80444 3.15375 5.80444 3.35149C5.80444 3.54923 5.62337 3.70864 5.39958 3.70864H2.16675ZM5.3833 12.496C5.58268 12.496 5.74341 12.6554 5.74341 12.8531C5.74341 13.0508 5.58268 13.2103 5.3833 13.2103H4.08325C3.71908 13.2103 3.38745 13.0529 3.14535 12.8047C2.90527 12.5565 2.75472 12.2175 2.75472 11.8584V9.23527C2.75472 9.03753 2.91545 8.87813 3.11483 8.87813C3.31421 8.87813 3.47494 9.03753 3.47494 9.23527V11.8584C3.47494 12.0299 3.54614 12.1933 3.66211 12.3123C3.77197 12.4253 3.92049 12.498 4.08122 12.498H5.3833V12.496ZM9.04541 10.1634C7.69857 10.1634 6.60604 11.247 6.60604 12.5827C6.60604 13.9185 7.69857 15.002 9.04541 15.002C10.3923 15.002 11.4848 13.9185 11.4848 12.5827C11.4827 11.247 10.3923 10.1634 9.04541 10.1634ZM9.04541 11.6525C8.52865 11.6525 8.1075 12.0682 8.1075 12.5827C8.1075 13.0952 8.52661 13.5129 9.04541 13.5129C9.56217 13.5129 9.98332 13.0973 9.98332 12.5827C9.98128 12.0682 9.56217 11.6525 9.04541 11.6525ZM20.7642 10.1634C19.4173 10.1634 18.3248 11.247 18.3248 12.5827C18.3248 13.9185 19.4173 15.002 20.7642 15.002C22.111 15.002 23.2035 13.9185 23.2035 12.5827C23.2035 11.247 22.111 10.1634 20.7642 10.1634ZM20.7642 11.6525C20.2474 11.6525 19.8263 12.0682 19.8263 12.5827C19.8263 13.0952 20.2454 13.5129 20.7642 13.5129C21.283 13.5129 21.7021 13.0973 21.7021 12.5827C21.7021 12.0682 21.283 11.6525 20.7642 11.6525ZM18.2678 4.80428L16.451 4.7841V7.1025H19.4967L18.2678 4.80428Z" fill="black"/>
</svg>
