<svg width="32" height="26" viewBox="0 0 32 26" fill="none" xmlns="http://www.w3.org/2000/svg">
<path d="M28.1147 6.88069C28.1344 7.15668 28.1344 7.43274 28.1344 7.70873C28.1344 16.1269 21.7397 25.8267 10.0522 25.8267C6.45151 25.8267 3.10663 24.7817 0.292969 22.9681C0.80456 23.0272 1.29641 23.0469 1.82768 23.0469C4.7987 23.0469 7.53368 22.0415 9.71772 20.3263C6.92374 20.2671 4.5823 18.4336 3.77557 15.9101C4.16912 15.9692 4.56261 16.0087 4.97585 16.0087C5.54643 16.0087 6.11707 15.9298 6.64829 15.7918C3.73627 15.2003 1.55217 12.6374 1.55217 9.5422V9.46337C2.3982 9.93653 3.38208 10.2322 4.42483 10.2716C2.71302 9.12815 1.59154 7.1764 1.59154 4.96833C1.59154 3.78546 1.9063 2.70114 2.45726 1.75482C5.58574 5.61893 10.2883 8.14238 15.5614 8.41844C15.463 7.94528 15.404 7.45246 15.404 6.95958C15.404 3.45029 18.2373 0.591675 21.7593 0.591675C23.5891 0.591675 25.2419 1.36055 26.4028 2.60259C27.8391 2.32659 29.2164 1.79427 30.4364 1.06483C29.9641 2.54348 28.9606 3.78552 27.6424 4.57406C28.9213 4.43612 30.1609 4.08117 31.3021 3.58835C30.4365 4.85005 29.3543 5.97375 28.1147 6.88069Z" fill="black"/>
</svg>
