<svg width="31" height="28" viewBox="0 0 31 28" fill="none" xmlns="http://www.w3.org/2000/svg">
<path d="M15.6452 23.5521L15.4993 23.6979L15.3389 23.5521C8.41185 17.2667 3.83268 13.1104 3.83268 8.89583C3.83268 5.97917 6.02018 3.79167 8.93685 3.79167C11.1827 3.79167 13.3702 5.25 14.1431 7.23333H16.8556C17.6285 5.25 19.816 3.79167 22.0618 3.79167C24.9785 3.79167 27.166 5.97917 27.166 8.89583C27.166 13.1104 22.5869 17.2667 15.6452 23.5521ZM22.0618 0.875C19.5243 0.875 17.0889 2.05625 15.4993 3.90833C13.9098 2.05625 11.4743 0.875 8.93685 0.875C4.44518 0.875 0.916016 4.38958 0.916016 8.89583C0.916016 14.3937 5.87435 18.9 13.3848 25.7104L15.4993 27.6354L17.6139 25.7104C25.1244 18.9 30.0827 14.3937 30.0827 8.89583C30.0827 4.38958 26.5535 0.875 22.0618 0.875Z" fill="black"/>
</svg>
